<?xml version="1.0" standalone="no"?>
<!DOCTYPE svg PUBLIC "-//W3C//DTD SVG 20010904//EN"
 "http://www.w3.org/TR/2001/REC-SVG-20010904/DTD/svg10.dtd">
<svg version="1.0" xmlns="http://www.w3.org/2000/svg"
 width="546.000000pt" height="457.000000pt" viewBox="0 0 546.000000 457.000000"
 preserveAspectRatio="xMidYMid meet">

<g transform="translate(0.000000,457.000000) scale(0.100000,-0.100000)"
fill="#000000" stroke="none">
<path d="M2519 3746 c-4 -4 -71 -11 -150 -16 -168 -11 -202 -21 -307 -93 -80
-55 -89 -60 -187 -97 -56 -22 -107 -55 -163 -106 -23 -20 -91 -57 -192 -103
-70 -32 -212 -183 -256 -271 -19 -40 -34 -74 -31 -76 2 -2 38 28 80 67 42 38
80 71 84 72 4 1 10 -35 13 -80 5 -78 13 -104 26 -90 3 3 8 54 10 114 4 120 3
119 84 155 25 11 63 28 86 39 23 10 46 19 52 19 6 0 12 5 14 12 2 6 12 9 21 5
14 -5 13 -13 -10 -69 -24 -57 -27 -74 -25 -183 1 -89 -3 -131 -15 -163 -9 -23
-13 -45 -10 -48 9 -9 37 64 37 95 0 14 6 38 14 53 8 14 17 45 21 67 8 46 51
141 64 141 5 0 19 16 32 35 28 41 42 43 63 13 9 -12 16 -18 16 -13 0 6 -7 19
-15 29 -26 34 -18 70 30 135 25 34 49 61 55 61 6 0 33 11 62 25 67 32 152 52
257 60 47 3 91 11 98 17 9 7 17 8 24 1 7 -7 0 -18 -21 -34 -73 -55 -86 -69
-110 -115 -14 -27 -48 -87 -75 -134 -68 -113 -85 -163 -85 -240 0 -73 -29
-218 -59 -297 -22 -59 -17 -66 21 -25 41 44 75 104 87 157 7 28 19 77 27 110
9 33 20 88 26 123 13 78 48 85 48 8 0 -12 17 -55 38 -96 60 -118 72 -159 72
-240 0 -41 5 -82 10 -90 13 -19 13 169 0 225 -14 62 -37 156 -49 195 -44 148
-45 164 -13 175 28 8 137 120 177 180 20 31 42 54 48 52 13 -4 97 -164 97
-184 0 -7 5 -13 10 -13 17 0 11 -57 -7 -71 -35 -30 -102 -133 -108 -168 -8
-49 11 -166 33 -199 23 -36 23 -181 -1 -235 -19 -44 -5 -46 26 -5 32 43 39
110 26 274 -11 149 -11 151 12 202 20 44 44 70 55 59 8 -8 27 -177 34 -307 9
-166 27 -262 71 -384 33 -93 55 -114 45 -43 -3 23 -9 188 -12 367 -4 215 -10
330 -17 339 -17 20 -23 277 -7 296 10 13 17 9 42 -28 17 -23 80 -91 142 -152
91 -89 116 -119 129 -159 11 -32 13 -54 7 -66 -25 -47 -40 -111 -38 -170 l1
-65 7 65 c7 70 23 120 39 120 6 0 15 -19 21 -42 46 -184 46 -184 85 -243 21
-31 55 -64 67 -65 7 0 1 19 -23 75 -23 54 -47 187 -48 268 -1 74 -24 144 -76
232 -23 39 -59 100 -79 137 -30 56 -51 78 -114 125 -117 85 -118 94 -8 64 42
-12 102 -21 134 -21 92 0 127 -14 162 -66 16 -25 30 -49 30 -53 0 -20 37 -80
72 -116 21 -22 41 -52 45 -68 3 -15 10 -30 14 -33 5 -3 9 -20 9 -37 1 -18 9
-50 20 -72 11 -22 19 -54 20 -72 0 -17 3 -34 8 -36 4 -3 6 35 4 83 -2 61 1 97
10 115 l14 26 28 -26 c44 -41 39 -25 -9 29 -24 27 -51 70 -60 95 -9 25 -23 59
-31 75 -8 16 -11 33 -7 37 9 9 109 -36 198 -89 72 -43 67 -40 132 -99 l52 -48
-24 -70 c-14 -38 -28 -92 -31 -120 -4 -27 -10 -54 -14 -60 -12 -16 -20 -166
-11 -210 7 -37 8 -35 15 40 7 85 24 165 35 165 11 0 26 -15 45 -43 9 -16 20
-26 24 -22 4 3 2 9 -3 13 -13 9 -45 79 -45 98 0 29 65 154 79 154 8 0 21 -7
30 -15 9 -8 53 -42 98 -75 45 -32 103 -80 128 -105 25 -25 49 -45 52 -45 2 0
-12 30 -32 66 -69 127 -243 334 -306 366 -19 9 -56 27 -84 39 -54 23 -165 94
-205 131 -35 31 -77 54 -127 67 -22 6 -70 31 -105 55 -34 24 -79 51 -98 61
-48 25 -166 55 -216 55 -23 0 -81 7 -130 16 -49 8 -127 17 -174 19 -47 2 -105
7 -130 11 -25 3 -48 3 -51 0z"/>
<path d="M1206 1998 c-34 -108 -115 -300 -133 -314 -7 -6 -13 -21 -13 -32 0
-12 -11 -56 -25 -98 -14 -42 -25 -88 -25 -103 0 -47 -6 -49 -142 -43 l-126 5
-7 105 c-6 79 -3 140 11 246 10 78 19 173 19 211 0 69 0 70 -27 73 -16 2 -28
-1 -28 -5 0 -5 -93 -9 -207 -9 -115 1 -214 -3 -220 -7 -10 -6 -13 -75 -13
-286 0 -153 -5 -302 -10 -332 -9 -48 -8 -55 10 -73 36 -36 50 -6 60 130 5 65
10 129 10 141 0 22 3 22 128 25 121 3 127 4 130 24 4 31 -42 44 -159 44 l-99
0 0 129 c0 108 3 130 16 135 9 3 90 6 180 6 125 0 164 -3 164 -12 -1 -7 -8
-67 -17 -133 -9 -66 -17 -185 -18 -265 0 -80 -4 -154 -7 -165 -4 -11 -4 -25 0
-32 9 -15 369 -34 395 -21 11 6 17 21 17 46 0 20 9 69 19 107 36 128 21 115
122 115 88 0 89 0 89 -24 0 -14 4 -27 9 -30 4 -3 11 -18 14 -33 6 -27 86 -176
106 -196 14 -14 41 10 41 36 0 11 -17 50 -38 86 -39 69 -60 128 -87 246 -9 39
-23 93 -30 120 -8 28 -17 88 -20 135 -9 121 -11 130 -39 130 -21 0 -27 -10
-50 -82z m47 -206 c9 -32 17 -73 17 -91 0 -30 -2 -33 -22 -27 -13 3 -38 6 -55
6 -37 0 -41 11 -19 56 7 16 22 48 32 72 10 23 20 42 24 42 3 0 13 -26 23 -58z"/>
<path d="M2941 2058 c-5 -13 -16 -48 -26 -78 -9 -30 -21 -64 -25 -75 -5 -11
-18 -42 -30 -70 -12 -27 -25 -59 -30 -70 -5 -11 -14 -31 -20 -45 -5 -14 -14
-32 -19 -40 -5 -8 -17 -42 -26 -75 -9 -33 -20 -68 -26 -77 -5 -10 -9 -29 -9
-43 0 -19 -5 -25 -22 -25 -13 0 -43 -7 -68 -16 -73 -26 -191 -5 -237 42 -51
51 -75 229 -41 304 9 19 19 50 22 68 11 63 58 89 191 106 81 10 90 13 93 33 4
29 -29 38 -118 29 -107 -10 -197 -56 -217 -113 -47 -128 -56 -176 -50 -261 8
-129 46 -202 132 -257 42 -27 204 -34 259 -11 48 20 44 21 48 -11 2 -22 9 -29
30 -31 31 -4 33 3 42 98 2 30 12 81 22 113 l18 57 88 0 c63 0 90 -4 92 -12 14
-55 44 -130 66 -168 14 -25 33 -58 42 -75 21 -38 41 -42 57 -12 11 21 9 30
-19 78 -43 75 -70 137 -80 184 -5 22 -16 69 -24 105 -37 154 -56 259 -56 313
0 54 -1 57 -25 57 -17 0 -28 -7 -34 -22z m19 -232 c0 -13 7 -43 15 -66 8 -23
15 -53 15 -66 0 -22 -3 -23 -47 -18 -84 10 -82 1 -29 117 28 60 46 73 46 33z"/>
<path d="M4540 2067 c0 -21 -41 -151 -51 -161 -5 -6 -9 -16 -9 -23 0 -7 -13
-42 -30 -76 -16 -35 -30 -68 -30 -72 0 -4 -11 -22 -24 -39 -12 -17 -26 -53
-30 -81 -5 -27 -12 -55 -16 -60 -13 -15 -35 -178 -27 -198 4 -10 17 -17 31
-17 29 0 31 7 41 112 4 37 10 70 15 73 5 3 11 23 15 45 l7 41 91 -3 91 -3 8
-35 c14 -54 61 -157 78 -170 4 -3 11 -18 17 -34 12 -37 40 -57 52 -38 6 11 51
15 191 17 169 2 183 4 202 23 18 18 19 23 8 37 -11 13 -25 15 -78 9 -49 -5
-66 -3 -73 7 -10 16 -10 281 0 434 l6 100 35 3 c19 2 56 10 83 18 48 16 57 32
37 64 -8 13 -13 13 -47 0 -27 -11 -82 -15 -192 -16 -130 0 -156 -3 -165 -16
-17 -28 10 -48 64 -48 26 0 62 -3 79 -6 l31 -7 -2 -268 -3 -269 -60 0 c-80 0
-127 14 -142 42 -35 70 -47 101 -65 173 -10 44 -25 103 -32 130 -31 118 -38
155 -43 238 l-6 87 -28 0 c-18 0 -29 -5 -29 -13z m30 -274 c6 -32 12 -71 13
-88 2 -30 2 -30 -48 -27 -27 2 -53 7 -57 11 -4 4 1 25 11 46 11 22 26 57 35
78 8 20 19 37 24 37 6 0 15 -26 22 -57z"/>
<path d="M3278 2060 c-24 -15 -45 -98 -57 -225 -8 -94 -13 -112 -30 -124 -24
-16 -27 -48 -6 -75 12 -15 15 -52 15 -156 0 -140 5 -160 41 -160 24 0 26 13
21 118 -3 64 -1 92 7 92 6 0 31 -16 57 -35 25 -19 50 -35 55 -35 5 0 15 -5 22
-10 27 -23 121 -90 126 -90 20 1 33 20 27 41 -6 23 -72 79 -126 107 -58 31
-90 54 -90 66 0 8 19 26 42 42 51 35 108 92 159 160 45 59 51 107 19 158 -18
31 -74 86 -85 86 -4 0 -26 9 -50 20 -54 25 -124 34 -147 20z m145 -92 c57 -28
87 -65 87 -104 0 -27 -13 -45 -77 -111 -74 -75 -145 -124 -159 -111 -5 6 18
249 33 326 5 33 7 34 41 27 20 -4 54 -16 75 -27z"/>
<path d="M2184 2048 c-4 -6 -8 -89 -8 -185 -1 -142 -4 -176 -16 -183 -23 -14
-223 -13 -238 2 -8 8 -12 52 -12 128 -1 117 -14 194 -39 224 -11 13 -33 16
-111 16 -89 0 -216 -21 -230 -39 -3 -3 -14 -11 -25 -17 -30 -16 -65 -73 -65
-106 0 -58 41 -115 144 -202 78 -65 126 -117 128 -140 4 -60 -14 -87 -79 -121
-73 -37 -91 -65 -54 -84 32 -18 160 60 189 114 14 28 17 63 7 109 -6 31 -24
55 -82 110 -175 166 -183 175 -183 204 0 36 42 76 95 92 22 6 81 10 130 8 l90
-3 12 -60 c7 -34 12 -137 12 -236 -1 -272 19 -348 80 -310 12 7 12 17 3 53 -6
23 -13 75 -15 115 l-4 71 123 -1 124 -2 0 -105 c0 -120 5 -146 28 -152 39 -10
42 -1 42 140 0 76 5 193 10 262 10 147 3 275 -17 296 -17 17 -29 18 -39 2z"/>
<path d="M3657 2028 c-26 -19 -30 -47 -32 -228 -2 -205 -14 -358 -30 -389 -9
-17 -9 -30 -1 -47 11 -23 14 -24 103 -20 170 7 289 76 329 192 17 50 17 80 0
147 -35 134 -76 221 -131 273 -18 19 -38 34 -42 34 -4 0 -20 6 -34 14 -14 7
-43 16 -65 20 -21 4 -48 10 -59 12 -11 3 -28 -1 -38 -8z m138 -88 c53 -25 67
-38 97 -85 57 -91 90 -275 60 -332 -29 -53 -155 -113 -236 -113 l-48 0 6 43
c4 23 9 137 12 252 2 116 7 220 10 233 6 28 43 29 99 2z"/>
</g>
</svg>
